REM DIRINDEX 1\2\6,1\2\7,1\2\8,1\2\9,1\3\10,1\3\11,1\4\12,1\4\13,1\4\14,1\5\15,1\5\16,1\5\17
REM DIRNAME folder01,folder02,folder03,folder04,folder05,folder06,folder07,folder08,folder09,folder10,folder11,folder12,folder13,folder14,folder15,folder16,folder17
TITLE ""
FILE "1400_2_sec11_1066_1083.mp3" MP3
  TRACK 01 AUDIO
    TITLE "0:"
    INDEX 01 00:00:00
  TRACK 02 AUDIO
    TITLE "13:cjc029_3741"
    INDEX 01 00:00:17
  TRACK 03 AUDIO
    TITLE "0:"
    INDEX 01 00:01:52
  TRACK 04 AUDIO
    TITLE "14:cjc029_3742"
    INDEX 01 00:01:60
  TRACK 05 AUDIO
    TITLE "0:"
    INDEX 01 00:06:33
  TRACK 06 AUDIO
    TITLE "13:cjc029_3743"
    INDEX 01 00:07:13
  TRACK 07 AUDIO
    TITLE "0:"
    INDEX 01 00:08:15
  TRACK 08 AUDIO
    TITLE "14:cjc029_3744"
    INDEX 01 00:08:23
  TRACK 09 AUDIO
    TITLE "0:"
    INDEX 01 00:13:33
  TRACK 10 AUDIO
    TITLE "13:cjc029_3745"
    INDEX 01 00:14:15
  TRACK 11 AUDIO
    TITLE "0:"
    INDEX 01 00:15:52
  TRACK 12 AUDIO
    TITLE "14:cjc029_3746"
    INDEX 01 00:15:56
  TRACK 13 AUDIO
    TITLE "0:"
    INDEX 01 00:19:46
  TRACK 14 AUDIO
    TITLE "13:cjc029_3747"
    INDEX 01 00:20:26
  TRACK 15 AUDIO
    TITLE "0:"
    INDEX 01 00:21:43
  TRACK 16 AUDIO
    TITLE "14:cjc029_3748"
    INDEX 01 00:21:49
  TRACK 17 AUDIO
    TITLE "0:"
    INDEX 01 00:23:40
  TRACK 18 AUDIO
    TITLE "13:cjc029_3749"
    INDEX 01 00:24:24
  TRACK 19 AUDIO
    TITLE "0:"
    INDEX 01 00:25:33
  TRACK 20 AUDIO
    TITLE "14:cjc029_3750"
    INDEX 01 00:25:41
  TRACK 21 AUDIO
    TITLE "0:"
    INDEX 01 00:26:52
  TRACK 22 AUDIO
    TITLE "13:cjc029_3751"
    INDEX 01 00:27:34
  TRACK 23 AUDIO
    TITLE "0:"
    INDEX 01 00:28:51
  TRACK 24 AUDIO
    TITLE "14:cjc029_3752"
    INDEX 01 00:28:57
  TRACK 25 AUDIO
    TITLE "0:"
    INDEX 01 00:29:70
  TRACK 26 AUDIO
    TITLE "13:cjc029_3753"
    INDEX 01 00:30:52
  TRACK 27 AUDIO
    TITLE "0:"
    INDEX 01 00:31:73
  TRACK 28 AUDIO
    TITLE "14:cjc029_3754"
    INDEX 01 00:32:01
  TRACK 29 AUDIO
    TITLE "0:"
    INDEX 01 00:36:19
  TRACK 30 AUDIO
    TITLE "13:cjc029_3755"
    INDEX 01 00:37:01
  TRACK 31 AUDIO
    TITLE "0:"
    INDEX 01 00:38:39
  TRACK 32 AUDIO
    TITLE "14:cjc029_3756"
    INDEX 01 00:38:45
  TRACK 33 AUDIO
    TITLE "0:"
    INDEX 01 00:39:66
  TRACK 34 AUDIO
    TITLE "13:cjc029_3757"
    INDEX 01 00:40:50
  TRACK 35 AUDIO
    TITLE "0:"
    INDEX 01 00:41:61
  TRACK 36 AUDIO
    TITLE "14:cjc029_3758"
    INDEX 01 00:41:63
  TRACK 37 AUDIO
    TITLE "0:"
    INDEX 01 00:44:24
  TRACK 38 AUDIO
    TITLE "13:cjc029_3759"
    INDEX 01 00:45:02
  TRACK 39 AUDIO
    TITLE "0:"
    INDEX 01 00:46:49
  TRACK 40 AUDIO
    TITLE "14:cjc029_3760"
    INDEX 01 00:46:54
  TRACK 41 AUDIO
    TITLE "0:"
    INDEX 01 00:49:16
  TRACK 42 AUDIO
    TITLE "13:cjc029_3761"
    INDEX 01 00:49:72
  TRACK 43 AUDIO
    TITLE "0:"
    INDEX 01 00:51:22
  TRACK 44 AUDIO
    TITLE "14:cjc029_3762"
    INDEX 01 00:51:26
  TRACK 45 AUDIO
    TITLE "0:"
    INDEX 01 00:52:34
  TRACK 46 AUDIO
    TITLE "12:cjc029_3763"
    INDEX 01 00:54:05
  TRACK 47 AUDIO
    TITLE "0:"
    INDEX 01 00:55:48
  TRACK 48 AUDIO
    TITLE "13:cjc029_3764"
    INDEX 01 00:56:51
  TRACK 49 AUDIO
    TITLE "0:"
    INDEX 01 00:57:52
  TRACK 50 AUDIO
    TITLE "14:cjc029_3765"
    INDEX 01 00:57:58
  TRACK 51 AUDIO
    TITLE "0:"
    INDEX 01 00:59:73
  TRACK 52 AUDIO
    TITLE "13:cjc029_3766"
    INDEX 01 01:00:57
  TRACK 53 AUDIO
    TITLE "0:"
    INDEX 01 01:01:60
  TRACK 54 AUDIO
    TITLE "14:cjc029_3767"
    INDEX 01 01:01:68
  TRACK 55 AUDIO
    TITLE "0:"
    INDEX 01 01:06:67
  TRACK 56 AUDIO
    TITLE "13:cjc029_3768"
    INDEX 01 01:07:51
  TRACK 57 AUDIO
    TITLE "0:"
    INDEX 01 01:08:58
  TRACK 58 AUDIO
    TITLE "14:cjc029_3769"
    INDEX 01 01:08:66
  TRACK 59 AUDIO
    TITLE "0:"
    INDEX 01 01:10:33
  TRACK 60 AUDIO
    TITLE "13:cjc029_3770"
    INDEX 01 01:11:17
  TRACK 61 AUDIO
    TITLE "0:"
    INDEX 01 01:12:24
  TRACK 62 AUDIO
    TITLE "14:cjc029_3771"
    INDEX 01 01:12:28
  TRACK 63 AUDIO
    TITLE "0:"
    INDEX 01 01:15:19
  TRACK 64 AUDIO
    TITLE "13:cjc029_3772"
    INDEX 01 01:16:03
  TRACK 65 AUDIO
    TITLE "0:"
    INDEX 01 01:17:16
  TRACK 66 AUDIO
    TITLE "14:cjc029_3773"
    INDEX 01 01:17:22
  TRACK 67 AUDIO
    TITLE "0:"
    INDEX 01 01:19:54
  TRACK 68 AUDIO
    TITLE "13:cjc029_3774"
    INDEX 01 01:20:38
  TRACK 69 AUDIO
    TITLE "0:"
    INDEX 01 01:21:49
  TRACK 70 AUDIO
    TITLE "14:cjc029_3775"
    INDEX 01 01:21:51
  TRACK 71 AUDIO
    TITLE "0:"
    INDEX 01 01:24:55
  TRACK 72 AUDIO
    TITLE "13:cjc029_3776"
    INDEX 01 01:25:39
  TRACK 73 AUDIO
    TITLE "0:"
    INDEX 01 01:26:44
  TRACK 74 AUDIO
    TITLE "14:cjc029_3777"
    INDEX 01 01:26:46
  TRACK 75 AUDIO
    TITLE "0:"
    INDEX 01 01:30:34
